<svg xmlns="http://www.w3.org/2000/svg" width="196.346" height="201.002" viewBox="0 0 196.346 201.002">
    <defs>
        <style>
            .cls-1,.cls-7{fill:#3a4042}.cls-1{stroke:#fffcee;stroke-width:8px}.cls-2{fill:#fffcee}.cls-3{fill:#eae6da}.cls-4{fill:#f25a70}.cls-5{fill:#828282}.cls-6{fill:#f4f1e4}
        </style>
    </defs>
    <g id="icon-collabcode" transform="translate(-4.623 -3.332)">
        <g id="Group_6" data-name="Group 6" transform="translate(8.623 7.332)">
            <circle id="Ellipse_1" cx="94.173" cy="94.173" r="94.173" class="cls-1" data-name="Ellipse 1"/>
            <g id="Group_1" data-name="Group 1" transform="translate(21.378 45.637)">
                <path id="Path_1" d="M192.99 114.453c-25.741 0-37.2 29.932-37.557 30.863-.827 2.551-6.5 20.656-6.5 35.132 0 27.359-22.693 43.19-50.223 43.19-27.758 0-50.246-16.07-50.246-43.816a248.749 248.749 0 0 1 1.866-28.941c-4.427-5.008-5.076-13.031-5.076-13.031a8.861 8.861 0 0 0-3.572 1.785.307.307 0 0 1-.5-.267c.5-4.281 4.84-13.367 13.429-14.675a77.708 77.708 0 0 1 5-13.724 51.68 51.68 0 0 1 65.875-23.09c17.367 0 25.755-9.218 25.755-9.218 3.9 0 8.6 10.2 6.422 14a.111.111 0 0 0 .156.144c7.235-4.609 11.313-15.98 11.313-15.98 8.262 4.131 12.6 22.693 8.16 27.132 14.253 2.199 18.086 10.496 15.698 10.496z" class="cls-2" data-name="Path 1" transform="translate(-41.178 -76.829)"/>
            </g>
            <g id="Group_2" data-name="Group 2" transform="translate(28.626 135.142)">
                <path id="Path_2" d="M101.258 270.416c-27.186-.47-49-16.455-49-43.789a118.931 118.931 0 0 1 .414-13.156C81.09 209 67.119 249.74 101.258 270.416z" class="cls-3" data-name="Path 2" transform="translate(-52.215 -213.131)"/>
            </g>
            <g id="Group_3" data-name="Group 3" transform="translate(105.687 46.597)">
                <path id="Path_3" d="M237.731 114.228c0 .455-.228.728-.66.728-.41 0-.808.011-1.217.023-22.842.762-32.97 22.9-34.689 27.109l-.034.066c-.933 1.923-1.456 3.255-1.593 3.6a45.035 45.035 0 0 0 1.3-9.924 51.627 51.627 0 0 0-31.269-47.449c.45 0 .894-.008 1.338-.02q.41 0 .82-.034c.284 0 .569-.023.854-.034.433-.034.842-.066 1.252-.1.25-.023.5-.045.751-.079a40.468 40.468 0 0 0 4.746-.774c.263-.066.525-.125.774-.194q.41-.085.82-.2c.307-.079.615-.16.91-.25.478-.148.956-.3 1.411-.444.364-.125.728-.25 1.07-.387s.706-.25 1.036-.4c.341-.125.66-.263.978-.41a39.562 39.562 0 0 0 1.8-.842 33.786 33.786 0 0 0 1.992-1.093 28.185 28.185 0 0 0 2.572-1.7 24.929 24.929 0 0 0 1.935-1.582l.023-.023a1.154 1.154 0 0 1 1.491.011c2.151 1.866 7.716 7.4 5.634 13.27l-.034.066a.1.1 0 0 0 .034.125.105.105 0 0 0 .137.023c.216-.137.421-.273.638-.433a16.188 16.188 0 0 0 1.4-1.1c.171-.148.341-.307.512-.467.273-.25.546-.525.808-.8.125-.125.25-.25.364-.387l.066-.066c.079-.079.148-.16.216-.239s.16-.171.228-.25c.023-.023.034-.045.045-.057q.188-.2.341-.41c.066-.079.137-.148.194-.228.2-.25.41-.512.6-.762.114-.148.228-.3.328-.444a.266.266 0 0 0 .066-.1s.023-.011.023-.023a5.331 5.331 0 0 0 .318-.444c.125-.171.25-.341.353-.512a.878.878 0 0 0 .125-.182 1.511 1.511 0 0 0 .114-.171c.091-.125.171-.25.25-.376.171-.263.341-.535.5-.8.011-.011.023-.023.023-.034.171-.263.318-.525.467-.788a.816.816 0 0 0 .079-.137c.228-.376.433-.751.626-1.116.079-.137.148-.263.216-.387.137-.25.263-.512.387-.751.1-.194.194-.387.3-.569a.042.042 0 0 1 .011-.034.415.415 0 0 1 .057-.125c.125-.239.239-.478.341-.706.079-.171.16-.341.228-.5.045-.091.079-.171.114-.25.023-.045.045-.091.066-.137.079-.194.16-.364.228-.535a1.062 1.062 0 0 1 .079-.16 1.121 1.121 0 0 1 1.81-.137 53.036 53.036 0 0 1 7 10.095c.057.137.091.273.148.41 1.958 6.009 2.2 12.416 0 15.023-.066.079-.137.16-.216.239.888.137 1.741.3 2.549.478.341.079.672.16 1 .239.171.045.341.091.5.137.318.079.626.171.919.263a23.461 23.461 0 0 1 8.411 4.313c.16.137.307.273.455.41a.116.116 0 0 1 .057.045c.148.137.284.273.421.41s.273.273.4.421.25.273.353.41a7.981 7.981 0 0 1 .512.672 4.567 4.567 0 0 1 .762 1.718 1.242 1.242 0 0 1 .026.252z" class="cls-4" data-name="Path 3" transform="translate(-169.566 -78.292)"/>
            </g>
            <path id="Path_4" d="M56.73 149.489c-9.994 0-15.016 10.211-15.551 14.833a.3.3 0 0 0 .5.263 9.006 9.006 0 0 1 3.58-1.793s1.379 16.975 13.764 16.975c15.141.002 13.764-30.278-2.293-30.278z" class="cls-5" data-name="Path 4" transform="translate(-19.8 -56.139)"/>
            <g id="Group_4" data-name="Group 4" transform="translate(77.761 144.275)">
                <path id="Path_5" d="M137.356 253.307c7.47 1.3 21.571 2.407 25.471-1.493 2.524-2.524-5.762-13.779-13.535-21.32a13.307 13.307 0 0 0-22.251 9.851c.001 6.561 4.071 11.871 10.315 12.962z" class="cls-6" data-name="Path 5" transform="translate(-127.041 -227.04)"/>
            </g>
            <path id="Path_6" d="M181.736 99.018c1.726-6.9-1.8-15.877-10.324-25.688a5.683 5.683 0 0 0-9.515 1.485 43.584 43.584 0 0 1-3.387 6.343 25.984 25.984 0 0 0-5.863-7.15 5.682 5.682 0 0 0-7.552.091c-1.849 1.685-8.74 7.092-21.1 7.346a56.238 56.238 0 0 0-70.776 25.5 82.956 82.956 0 0 0-4.673 12.108c-8.615 2.916-13.564 11.991-14.262 17.909a4.859 4.859 0 0 0 4.828 5.425q.2 0 .394-.016a27.009 27.009 0 0 0 3.685 7.94 256.2 256.2 0 0 0-1.658 27.64c0 14.619 5.662 27.009 16.373 35.827 9.822 8.088 23.469 12.542 38.426 12.542 32.251 0 54.776-19.634 54.776-47.74 0-13.737 5.45-31.164 6.238-33.621.8-2.08 11.217-27.827 33.262-27.827a5.184 5.184 0 0 0 5.2-4.838c.351-4.578-4.839-10.314-14.072-13.276zM130.7 209.107c-8.728 7.063-20.935 10.953-34.37 10.953-33.524 0-48.528-21.145-48.528-42.107 0-.141.02-13.095 1.457-25.569a12.643 12.643 0 0 0 7.386 2.271 10.954 10.954 0 0 0 9.377-4.983 18.788 18.788 0 0 0 2.923-10.532c0-8.763-5.062-18.066-14.439-18.169a76.38 76.38 0 0 1 4.23-11.071 49.911 49.911 0 0 1 93.923 23.548c0 5.319-1.478 10.748-3.188 17.037-2.163 7.952-4.615 16.964-4.615 28.088.001 12.483-4.894 23.04-14.156 30.534zm-69.476-70c-9.2-8.047-17.551-5.277-18.86-4.768a9.207 9.207 0 0 0-1.038.322c1.659-4.272 5.793-10.288 13.026-10.288 7.339 0 11.179 7.428 11.179 14.765a15.371 15.371 0 0 1-2.325 8.6 7.575 7.575 0 0 1-6.561 3.5c-4.38 0-7.722-2.491-9.935-7.4a27.431 27.431 0 0 1-1.946-6.657c2.375-.542 7.96-.973 14.212 4.5a1.707 1.707 0 1 0 2.248-2.569zm86.938-61.644a1.116 1.116 0 0 1 .755-.293 1.147 1.147 0 0 1 .751.282c1.9 1.642 6.445 6.135 6.069 11.2a10.383 10.383 0 0 1-6.416 2.49 1.707 1.707 0 1 0 0 3.415c9.85 0 16.116-12.148 18.241-17.04 3.585 2.942 6.219 9.211 7.085 14.542.582 3.587.373 6.675-.512 8.235a47.031 47.031 0 0 0-6.462-.435 1.707 1.707 0 0 0 0 3.415c13.2 0 18.373 4.878 20.26 7.692-17.109 1.226-27.167 14.089-31.862 22.221a53.256 53.256 0 0 0-29.307-47.337c12.213-.956 19.271-6.45 21.398-8.388z" class="cls-7" data-name="Path 6" transform="translate(-17.421 -29.319)"/>
            <circle id="Ellipse_2" cx="8.464" cy="8.464" r="8.464" class="cls-7" data-name="Ellipse 2" transform="translate(60.834 104.321)"/>
            <g id="Group_5" data-name="Group 5" transform="translate(76.054 142.569)">
                <path id="Path_7" d="M150.035 255.348a88.792 88.792 0 0 1-13.866-1.253c-7.015-1.227-11.727-7.112-11.727-14.644a15.029 15.029 0 0 1 15.011-15.011 14.811 14.811 0 0 1 10.167 3.968c5.56 5.393 14.447 15.939 14.483 21.145a3.467 3.467 0 0 1-.962 2.575c-2.502 2.504-7.827 3.22-13.106 3.22zm-13.278-4.614c9.606 1.676 21.2 1.753 23.968-1.018.571-1.632-4.925-10.551-13.516-18.888a11.6 11.6 0 0 0-19.353 8.623c0 5.815 3.576 10.348 8.9 11.28z" class="cls-7" data-name="Path 7" transform="translate(-124.441 -224.441)"/>
            </g>
        </g>
    </g>
</svg>
